<svg width="166" height="83" fill="none" xmlns="http://www.w3.org/2000/svg"><path fill-rule="evenodd" clip-rule="evenodd" d="M27.05 67.088c2.22 0 3.766-.59 4.816-1.61 1.048-1.054 1.627-2.561 1.596-4.692l-.018-1.25H52.24v1.232c0 6.473-2.34 11.847-7.02 16.022C40.584 80.958 34.628 83 27.463 83c-8.403 0-15.16-2.652-20.115-8.054C2.4 69.553 0 62.153 0 52.906v-.725C0 46.375 1.06 41.204 3.22 36.7l.001-.004c2.199-4.55 5.373-8.065 9.518-10.506 4.145-2.476 9.017-3.69 14.568-3.69 7.5 0 13.595 2.09 18.143 6.388 4.558 4.308 6.79 10.121 6.79 17.293v1.232H33.461V46.18c0-2.707-.659-4.592-1.796-5.843-1.147-1.26-2.691-1.925-4.772-1.925-1.97 0-3.404.615-4.45 1.76-1.082 1.182-1.87 3.063-2.231 5.807-.231 1.75-.351 4.205-.351 7.391 0 5.607.685 9.19 1.83 11.042 1.082 1.75 2.783 2.675 5.357 2.675zm88.111 14.878L93.587 47.892l20.709-24.357H90.182L77.13 39.801V0H57.268v81.966h19.861V65.313l3.42-3.426 11.738 20.079h22.874zM166 .052h-19.913v26.613c-3.219-2.762-7.022-4.165-11.371-4.165-7.203 0-12.918 2.709-16.991 8.149-4.033 5.385-5.978 12.66-5.978 21.688 0 9.563 1.973 17.126 6.087 22.523 4.133 5.422 9.768 8.14 16.779 8.14 5.023 0 9.306-1.833 12.806-5.423l.642 4.389H166V.052zm-26.946 67.036c-2.459 0-4.221-1.012-5.444-3.113-1.282-2.202-2.001-5.661-2.002-10.542l.052-3.175c.22-4.243 1.038-7.233 2.309-9.132 1.219-1.82 2.899-2.713 5.188-2.713 1.751 0 3.163.374 4.293 1.062 1.064.647 1.948 1.614 2.637 2.96v20.717c-.715 1.309-1.619 2.255-2.698 2.89-1.153.678-2.581 1.046-4.335 1.046z" fill="#3DEA6E"/><path d="M160.119 72.294c0-.512-.137-.91-.411-1.19-.281-.282-.67-.42-1.167-.412V67.27c1.283 0 2.335.462 3.156 1.385.822.917 1.232 2.1 1.232 3.551 0 1.704-.533 3.046-1.599 4.028-1.067.981-2.544 1.472-4.432 1.472h-.151c-1.182 0-2.223-.216-3.124-.65-.907-.44-1.603-1.071-2.086-1.894-.489-.823-.734-1.797-.734-2.923 0-1.523.421-2.732 1.264-3.627.843-.895 1.985-1.342 3.426-1.342v3.42c-.605 0-1.07.149-1.394.445-.324.296-.486.693-.486 1.19 0 .946.601 1.498 1.805 1.657.381.05.907.076 1.578.076 1.174 0 1.988-.141 2.442-.422.454-.282.681-.73.681-1.343zM159.427 59.595c-.309 0-.558.162-.745.487-.188.325-.382.942-.584 1.851-.202.91-.465 1.66-.789 2.252-.331.592-.731 1.043-1.2 1.353a2.847 2.847 0 0 1-1.61.466c-1.074 0-1.956-.444-2.648-1.332-.699-.887-1.048-2.05-1.048-3.486 0-1.544.349-2.786 1.048-3.724.699-.938 1.618-1.407 2.756-1.407v3.659c-.937 0-1.405.494-1.405 1.483 0 .383.108.704.324.964.209.26.472.39.789.39.324 0 .587-.16.789-.477.202-.317.368-.823.497-1.516.13-.7.285-1.313.465-1.84.605-1.761 1.69-2.642 3.253-2.642 1.067 0 1.935.477 2.605 1.43.67.945 1.005 2.172 1.005 3.68 0 1.004-.18 1.898-.54 2.685-.36.787-.85 1.4-1.47 1.84-.62.441-1.272.661-1.956.661v-3.41c.54-.015.936-.195 1.189-.542.245-.346.367-.79.367-1.331 0-.498-.101-.87-.303-1.115a.96.96 0 0 0-.789-.38zM159.427 48.227c-.309 0-.558.163-.745.488-.188.324-.382.941-.584 1.85-.202.91-.465 1.66-.789 2.253-.331.592-.731 1.043-1.2 1.353a2.846 2.846 0 0 1-1.61.465c-1.074 0-1.956-.443-2.648-1.331-.699-.888-1.048-2.05-1.048-3.486 0-1.545.349-2.786 1.048-3.725.699-.938 1.618-1.407 2.756-1.407v3.66c-.937 0-1.405.494-1.405 1.483 0 .382.108.703.324.963.209.26.472.39.789.39.324 0 .587-.159.789-.477.202-.317.368-.822.497-1.515.13-.7.285-1.314.465-1.84.605-1.762 1.69-2.642 3.253-2.642 1.067 0 1.935.476 2.605 1.429.67.945 1.005 2.172 1.005 3.68 0 1.004-.18 1.899-.54 2.686-.36.786-.85 1.4-1.47 1.84-.62.44-1.272.66-1.956.66v-3.41c.54-.014.936-.195 1.189-.541.245-.346.367-.79.367-1.332 0-.498-.101-.87-.303-1.115a.96.96 0 0 0-.789-.379z" fill="#fff"/></svg>
